<svg width="70" height="49" viewBox="0 0 70 49" fill="none" xmlns="http://www.w3.org/2000/svg">
<path fill-rule="evenodd" clip-rule="evenodd" d="M3.56792 20.5753C2.61396 19.4381 1.8986 18.0013 1.42187 16.265C0.706765 13.6607 0.0979668 9.24104 1.6513 6.71326C3.20463 4.18548 6.28165 2.87473 9.61131 2.21021C12.941 1.54569 16.8723 2.41142 19.0342 3.63554C21.196 4.85967 23.5809 6.72024 25.0062 8.19552C25.9565 9.17904 26.729 10.1213 27.3239 11.0224C26.6169 11.3533 26.0538 11.611 25.6348 11.7956C25.2158 11.9802 24.7651 12.1641 24.2828 12.3473C23.8404 11.4789 23.3318 10.7573 22.7571 10.1824C21.895 9.32018 19.9714 7.54056 18.7055 6.71326C17.4396 5.88595 16.3811 5.42102 14.4516 5.42102C12.5221 5.42102 10.9957 6.07223 9.61131 6.71326C8.22688 7.35429 6.44279 8.56928 5.76228 10.1824C5.08176 11.7956 4.98017 13.6648 4.98017 14.9649C4.98017 16.265 5.34015 17.4664 5.53876 18.1143C5.67117 18.5462 5.96432 19.0797 6.41822 19.7149L3.56792 20.5753Z" fill="white"/>
<path fill-rule="evenodd" clip-rule="evenodd" d="M7.01816 19.5387C6.32902 18.5259 5.95198 17.5513 5.88704 16.6149C5.78963 15.2104 6.13508 12.8675 7.21401 11.1344C8.29294 9.40122 10.3001 6.99959 14.0155 6.66803C17.7308 6.33647 20.5916 8.95318 21.3187 9.78801C21.8034 10.3446 22.3866 11.3745 23.0682 12.8778C22.5067 13.1515 21.9952 13.3915 21.5335 13.5977C21.0719 13.8039 20.6256 14.0165 20.1944 14.2355C20.1897 13.6794 19.8674 12.9936 19.2275 12.178C18.2676 10.9546 16.8348 10.5471 15.4879 10.4024C14.1411 10.2576 12.2373 11.0936 11.2681 12.8778C10.299 14.662 10.3524 15.6824 10.4901 16.2822C10.5819 16.6821 10.8412 17.2003 11.2681 17.837L7.01816 19.5387Z" fill="white"/>
<path fill-rule="evenodd" clip-rule="evenodd" d="M12.2135 17.4136C11.7801 16.6988 11.7217 15.7994 12.038 14.7154C12.5126 13.0894 13.5885 12.0784 15.1833 11.904C16.7781 11.7297 18.2678 12.723 18.6961 13.3086C18.9816 13.6989 19.1896 14.1679 19.3201 14.7154L17.4496 15.4621C17.3922 15.0158 17.2152 14.6436 16.9186 14.3454C16.4737 13.898 15.7543 13.7155 14.8285 13.8068C13.9028 13.898 13.5009 14.7447 13.2842 15.4621C13.1397 15.9404 13.2123 16.4419 13.502 16.9665L12.2135 17.4136Z" fill="white"/>
<path fill-rule="evenodd" clip-rule="evenodd" d="M30.3478 7.78076L37.6452 14.806L7.29742 46.4518C5.52517 44.6219 4.10605 43.2452 3.04008 42.3214C1.9741 41.3977 0.960739 40.4328 0 39.4266C0.742282 38.3465 2.5616 36.4438 5.45796 33.7185C9.8025 29.6306 14.1957 25.5712 18.8226 20.3528C21.9072 16.8738 25.7489 12.6831 30.3478 7.78076Z" fill="white"/>
<path fill-rule="evenodd" clip-rule="evenodd" d="M47.301 0H50.8481L50.1884 8.07759L55.4482 2.79983L57.9488 5.34593L53.1491 9.46353L60.455 8.6631V12.7284C59.2719 12.7284 57.92 12.7284 56.3991 12.7284C54.8783 12.7284 53.3211 12.7284 51.7275 12.7284L58.6624 18.3564L55.8087 21.2016L50.5555 15.8743L51.2967 22.6064L47.2759 22.5596V15.4846L42.4449 21.6145L39.6106 18.6924L45.5486 12.7284H38.1384V9.11891L44.4343 9.63561L40.0796 5.1936L42.6028 2.66096L47.2759 8.25635L47.301 0Z" fill="white"/>
<path fill-rule="evenodd" clip-rule="evenodd" d="M61.9193 18.2158C66.0637 18.3372 68.4293 21.2108 69.1814 22.5239C69.9336 23.837 70.2324 25.5882 69.5427 27.6949C68.853 29.8015 67.7955 31.1038 66.8492 31.8943C65.9029 32.6847 64.0475 33.6263 61.9193 33.6263C59.7911 33.6263 58.2858 32.7471 56.9089 31.8943C55.2471 30.8448 53.9051 28.9108 53.9051 26.4265C53.8407 24.2592 55.3299 21.8231 56.236 20.7443C57.142 19.6656 59.3625 18.2158 61.9193 18.2158Z" fill="white"/>
<path fill-rule="evenodd" clip-rule="evenodd" d="M33.1607 19.4194L65.7124 36.4878C64.4456 38.9629 63.0766 40.9002 61.6055 42.2998C59.3988 44.3992 56.4026 46.6232 51.9452 47.6591C47.4879 48.6951 42.2377 47.4494 38.3009 45.0637C34.3641 42.678 31.3086 37.3909 30.1385 33.9599C28.9683 30.529 28.9254 26.9986 30.1385 24.2502C30.9472 22.418 31.9546 20.8077 33.1607 19.4194Z" fill="white"/>
</svg>
